<?xml version="1.0" encoding="utf-8"?>
<!-- Generator: Adobe Illustrator 25.3.1, SVG Export Plug-In . SVG Version: 6.00 Build 0)  -->
<svg version="1.1" id="圖層_1" focusable="false" xmlns="http://www.w3.org/2000/svg" xmlns:xlink="http://www.w3.org/1999/xlink"
	 x="0px" y="0px" viewBox="0 0 576 512" style="enable-background:new 0 0 576 512;" xml:space="preserve">
<style type="text/css">
	.st0{fill:#FFFFFF;}
</style>
<path class="st0" d="M528,32H48C21.5,32,0,53.5,0,80v352c0,26.5,21.5,48,48,48h480c26.5,0,48-21.5,48-48V80
	C576,53.5,554.5,32,528,32z M528,432H303.2c0.9-4.5,0.8,3.6,0.8-22.4c0-31.8-30.1-57.6-67.2-57.6c-10.8,0-18.7,8-44.8,8
	c-26.9,0-33.4-8-44.8-8c-37.1,0-67.2,25.8-67.2,57.6c0,26-0.2,17.9,0.8,22.4H48V144h480V432z M360,352h112c4.4,0,8-3.6,8-8v-16
	c0-4.4-3.6-8-8-8H360c-4.4,0-8,3.6-8,8v16C352,348.4,355.6,352,360,352z M360,288h112c4.4,0,8-3.6,8-8v-16c0-4.4-3.6-8-8-8H360
	c-4.4,0-8,3.6-8,8v16C352,284.4,355.6,288,360,288z M360,224h112c4.4,0,8-3.6,8-8v-16c0-4.4-3.6-8-8-8H360c-4.4,0-8,3.6-8,8v16
	C352,220.4,355.6,224,360,224z M192,320c35.3,0,64-28.7,64-64s-28.7-64-64-64s-64,28.7-64,64S156.7,320,192,320z"/>
</svg>
