<svg width="120" height="24" viewBox="0 0 120 24" fill="none" xmlns="http://www.w3.org/2000/svg">
<path d="M12 1.61804L14.2186 8.4463L14.3309 8.7918H14.6942H21.8738L16.0654 13.0119L15.7715 13.2254L15.8837 13.5709L18.1024 20.3992L12.2939 16.1791L12 15.9656L11.7061 16.1791L5.89763 20.3992L8.11627 13.5709L8.22853 13.2254L7.93464 13.0119L2.12616 8.7918H9.30583H9.6691L9.78136 8.4463L12 1.61804Z" stroke="#FFB257"/>
<path d="M36 1.61804L38.2186 8.4463L38.3309 8.7918H38.6942H45.8738L40.0654 13.0119L39.7715 13.2254L39.8837 13.5709L42.1024 20.3992L36.2939 16.1791L36 15.9656L35.7061 16.1791L29.8976 20.3992L32.1163 13.5709L32.2285 13.2254L31.9346 13.0119L26.1262 8.7918H33.3058H33.6691L33.7814 8.4463L36 1.61804Z" stroke="#FFA231"/>
<path d="M60 1.61804L62.2186 8.4463L62.3309 8.7918H62.6942H69.8738L64.0654 13.0119L63.7715 13.2254L63.8837 13.5709L66.1024 20.3992L60.2939 16.1791L60 15.9656L59.7061 16.1791L53.8976 20.3992L56.1163 13.5709L56.2285 13.2254L55.9346 13.0119L50.1262 8.7918H57.3058H57.6691L57.7814 8.4463L60 1.61804Z" stroke="#FFB257"/>
<path d="M84 1.61804L86.2186 8.4463L86.3309 8.7918H86.6942H93.8738L88.0654 13.0119L87.7715 13.2254L87.8837 13.5709L90.1024 20.3992L84.2939 16.1791L84 15.9656L83.7061 16.1791L77.8976 20.3992L80.1163 13.5709L80.2285 13.2254L79.9346 13.0119L74.1262 8.7918H81.3058H81.6691L81.7814 8.4463L84 1.61804Z" stroke="#FFB257"/>
<path d="M108 1.61804L110.219 8.4463L110.331 8.7918H110.694H117.874L112.065 13.0119L111.771 13.2254L111.884 13.5709L114.102 20.3992L108.294 16.1791L108 15.9656L107.706 16.1791L101.898 20.3992L104.116 13.5709L104.229 13.2254L103.935 13.0119L98.1262 8.7918H105.306H105.669L105.781 8.4463L108 1.61804Z" stroke="#FFB257"/>
</svg>
