<svg width="680" height="680" viewBox="0 0 680 680" fill="none" xmlns="http://www.w3.org/2000/svg">
<path fill-rule="evenodd" clip-rule="evenodd" d="M631 340C631 500.715 500.715 631 340 631C179.285 631 49 500.715 49 340C49 179.285 179.285 49 340 49C500.715 49 631 179.285 631 340ZM623 340C623 496.297 496.297 623 340 623C183.703 623 57 496.297 57 340C57 183.703 183.703 57 340 57C496.297 57 623 183.703 623 340Z" fill="white"/>
<path fill-rule="evenodd" clip-rule="evenodd" d="M680 340C680 527.777 527.777 680 340 680C152.223 680 0 527.777 0 340C0 152.223 152.223 0 340 0C527.777 0 680 152.223 680 340ZM640 340C640 505.685 505.685 640 340 640C174.315 640 40 505.685 40 340C40 174.315 174.315 40 340 40C505.685 40 640 174.315 640 340Z" fill="white"/>
</svg>
