<svg width="614" height="614" viewBox="0 0 614 614" fill="none" xmlns="http://www.w3.org/2000/svg">
<path fill-rule="evenodd" clip-rule="evenodd" d="M569.756 307C569.756 452.116 452.116 569.756 307 569.756C161.884 569.756 44.2441 452.116 44.2441 307C44.2441 161.884 161.884 44.2441 307 44.2441C452.116 44.2441 569.756 161.884 569.756 307ZM562.532 307C562.532 448.127 448.127 562.532 307 562.532C165.873 562.532 51.4676 448.127 51.4676 307C51.4676 165.873 165.873 51.4676 307 51.4676C448.127 51.4676 562.532 165.873 562.532 307Z" fill="#FFB257"/>
<path fill-rule="evenodd" clip-rule="evenodd" d="M614 307C614 476.551 476.551 614 307 614C137.449 614 0 476.551 0 307C0 137.449 137.449 0 307 0C476.551 0 614 137.449 614 307ZM577.882 307C577.882 456.604 456.604 577.882 307 577.882C157.396 577.882 36.1176 456.604 36.1176 307C36.1176 157.396 157.396 36.1176 307 36.1176C456.604 36.1176 577.882 157.396 577.882 307Z" fill="#FFB257"/>
</svg>
