<svg width="389" height="614" viewBox="0 0 389 614" fill="none" xmlns="http://www.w3.org/2000/svg">
<path fill-rule="evenodd" clip-rule="evenodd" d="M344.756 307C344.756 452.116 227.116 569.756 82 569.756C-63.1161 569.756 -180.756 452.116 -180.756 307C-180.756 161.884 -63.1161 44.2441 82 44.2441C227.116 44.2441 344.756 161.884 344.756 307ZM337.532 307C337.532 448.127 223.127 562.532 82 562.532C-59.1266 562.532 -173.532 448.127 -173.532 307C-173.532 165.873 -59.1266 51.4676 82 51.4676C223.127 51.4676 337.532 165.873 337.532 307Z" fill="#FFB257"/>
<path fill-rule="evenodd" clip-rule="evenodd" d="M389 307C389 476.551 251.551 614 82 614C-87.5514 614 -225 476.551 -225 307C-225 137.449 -87.5514 0 82 0C251.551 0 389 137.449 389 307ZM352.882 307C352.882 456.604 231.604 577.882 82 577.882C-67.6042 577.882 -188.882 456.604 -188.882 307C-188.882 157.396 -67.6042 36.1176 82 36.1176C231.604 36.1176 352.882 157.396 352.882 307Z" fill="#FFB257"/>
</svg>
