<svg width="513" height="845" viewBox="0 0 513 845" fill="none" xmlns="http://www.w3.org/2000/svg">
<path fill-rule="evenodd" clip-rule="evenodd" d="M784.11 422.5C784.11 622.212 622.212 784.11 422.5 784.11C222.788 784.11 60.8897 622.212 60.8897 422.5C60.8897 222.788 222.788 60.8897 422.5 60.8897C622.212 60.8897 784.11 222.788 784.11 422.5ZM774.169 422.5C774.169 616.721 616.721 774.169 422.5 774.169C228.279 774.169 70.8309 616.721 70.8309 422.5C70.8309 228.279 228.279 70.8309 422.5 70.8309C616.721 70.8309 774.169 228.279 774.169 422.5Z" fill="#0078B3"/>
<path fill-rule="evenodd" clip-rule="evenodd" d="M845 422.5C845 655.84 655.84 845 422.5 845C189.16 845 0 655.84 0 422.5C0 189.16 189.16 0 422.5 0C655.84 0 845 189.16 845 422.5ZM795.294 422.5C795.294 628.389 628.389 795.294 422.5 795.294C216.611 795.294 49.7059 628.389 49.7059 422.5C49.7059 216.611 216.611 49.7059 422.5 49.7059C628.389 49.7059 795.294 216.611 795.294 422.5Z" fill="#0078B3"/>
</svg>
