<svg fill="none" height="99" viewBox="0 0 215 99" width="215" xmlns="http://www.w3.org/2000/svg"><path d="m80.6309 81.4785c0 1.4811.1481 2.7295.4443 3.7451.2962 1.0157.6771 1.8409 1.1426 2.4756.5078.5925 1.0579 1.0156 1.6504 1.2696.6347.2539 1.2695.3808 1.9043.3808.677 0 1.3118-.1269 1.9043-.3808.5924-.2963 1.1214-.5925 1.5869-.8887.5078-.3386.9521-.6348 1.333-.8887.3808-.2962.6982-.4443.9521-.4443.5925 0 .8887.3174.8887.9521 0 .3809-.1481.7829-.4443 1.2061-.5078.6771-1.1426 1.4599-1.9043 2.3486-.7194.931-1.5658 1.7985-2.5391 2.6025-.9733.8464-2.0736 1.5446-3.3008 2.0948-1.1849.5924-2.4967.8886-3.9355.8886-1.989 0-3.6393-.5078-4.9512-1.5234-1.2695-1.0156-2.2852-2.3063-3.0469-3.8721-.7617-1.5234-1.2907-3.1738-1.5869-4.9511-.2962-1.8197-.4443-3.5124-.4443-5.0782l.0635-1.0156c-1.1849 2.9199-2.4756 5.3955-3.8721 7.4268-1.3965 2.0312-2.793 3.7239-4.1895 5.0781-1.3965 1.3965-2.7929 2.4756-4.1894 3.2373-1.3542.7617-2.6449 1.333-3.8721 1.7139-1.1849.4231-2.264.6771-3.2373.7617-.931.0846-1.6715.1269-2.2217.1269-2.8353 0-5.5648-.5924-8.1885-1.7773-2.5813-1.1426-4.8665-2.8776-6.8554-5.2051-1.989-2.3275-3.5759-5.2262-4.7608-8.6963-1.1849-3.5123-1.7773-7.6172-1.7773-12.3144 0-3.4278.2751-7.0671.8252-10.918.5924-3.8509 1.2272-7.8076 1.9043-11.8701.7194-4.1048 1.3542-8.2943 1.9043-12.5684.5924-4.3164.8887-8.6328.8887-12.9492 0-2.7083-.254-5.0358-.7618-6.9824s-1.1849-3.5335-2.0312-4.7608c-.8464-1.22717-1.7985-2.11584-2.8565-2.66597-1.0579-.59245-2.1582-.88867-3.3007-.88867-1.4388 0-2.8776.38086-4.3164 1.14258-1.4388.7194-2.7507 1.86196-3.9356 3.42776-1.1426 1.5234-2.0736 3.47-2.793 5.8398s-1.0791 5.1839-1.0791 8.4424c0 3.0046.3597 5.6706 1.0791 7.998.7618 2.3275 1.6081 4.3165 2.5391 5.9668.9733 1.6081 1.8831 2.8776 2.7295 3.8086.8887.8887 1.4811 1.4177 1.7773 1.587.2116.1692.4021.3597.5713.5712.1693.1693.2539.3597.2539.5713 0 .5502-.6347.8252-1.9043.8252-.4231 0-1.1637-.0846-2.2216-.2539-1.058-.1693-2.2429-.5078-3.5547-1.0156-1.3119-.5501-2.6872-1.2907-4.12601-2.2217-1.39648-.931-2.68717-2.137-3.87207-3.6181-1.14258-1.5235-2.09473-3.3643-2.85644-5.5225-.76172-2.1582-1.142583-4.7396-1.142583-7.7442 0-3.4277.677083-6.7285 2.031253-9.9023 1.35416-3.1738 3.15267-5.9668 5.3955-8.3789 2.28515-2.41211 4.90885-4.33757 7.87105-5.77637 2.9623-1.4388 6.0726-2.158202 9.3311-2.158202 2.4121 0 4.7396.423182 6.9824 1.269532 2.2852.80404 4.2953 2.09473 6.0303 3.87207 1.7773 1.77734 3.1738 4.08366 4.1895 6.91897 1.0579 2.7929 1.5869 6.1995 1.5869 10.2197 0 3.9355-.2539 7.8288-.7618 11.6797-.5078 3.8509-1.0791 7.6807-1.7138 11.4892-.6348 3.8086-1.2061 7.6172-1.7139 11.4258-.5078 3.7663-.7617 7.5537-.7617 11.3623 0 4.0202.3174 7.3422.9521 9.9659.6771 2.6237 1.5658 4.7184 2.6661 6.2841 1.1425 1.5235 2.4544 2.6026 3.9355 3.2373 1.4811.6348 3.068.9522 4.7607.9522 2.5391 0 4.8243-.5078 6.8555-1.5235 2.0313-1.0156 3.8086-2.3909 5.332-4.1259 1.5658-1.7351 2.8988-3.7451 3.9991-6.0303 1.1425-2.3275 2.0735-4.8031 2.7929-7.4268.0847-.3808.2328-1.4811.4444-3.3007.2539-1.862.5289-4.1683.8252-6.919.3385-2.793.6982-5.9033 1.0791-9.331.3808-3.4701.7617-6.9825 1.1425-10.5371.4232-3.5547.8252-7.0459 1.2061-10.4737.4232-3.4277.804-6.4958 1.1426-9.2041.3808-2.7083.6982-4.9512.9521-6.7285.2963-1.7773.529-2.793.6983-3.0469.0846-.1692.3597-.402.8252-.6982.5078-.29624 1.4599-.44435 2.8564-.44435.127 0 .2751.02116.4443.06347h.5079c.2116 0 .4231-.16927.6347-.50781.2539-.38086.5502-.78288.8887-1.20605.3385-.4655.7617-.86752 1.2695-1.20606.5078-.38086 1.1426-.57129 1.9043-.57129.3809 0 .6983.08464.9522.25391s.3808.46549.3808.88867l-.1269 1.14258c-.0847.50781-.2751 1.81963-.5713 3.93553s-.6348 4.7608-1.0156 7.9346c-.3809 3.1315-.8252 6.6862-1.333 10.664-.4655 3.9356-.931 7.9769-1.3965 12.1241-.4655 4.1471-.931 8.2731-1.3965 12.3779s-.8675 7.8923-1.2061 11.3623c-.3385 3.4701-.6136 6.4958-.8252 9.0772-.2115 2.5813-.3173 4.4222-.3173 5.5224zm76.2991-14.5361c.592 0 .888.3385.888 1.0156 0 .2539-.063.5713-.19.9522-.973 2.8352-1.904 5.4378-2.793 7.8076-.846 2.3698-1.693 4.4857-2.539 6.3476-.508 1.1426-1.058 2.2429-1.65 3.3008-.593 1.058-1.27 2.0101-2.032 2.8565-.761.804-1.629 1.4599-2.602 1.9677-.974.5078-2.095.7617-3.365.7617-.846 0-1.671-.1269-2.475-.3808-.804-.2116-1.545-.6136-2.222-1.2061-.677-.6347-1.248-1.4599-1.714-2.4756-.465-1.0156-.783-2.2851-.952-3.8085-.084-.931-.148-1.9043-.19-2.92-.043-1.0156-.064-2.0312-.064-3.0468 0-2.2852.064-4.4434.191-6.4747.127-2.0735.19-3.6393.19-4.6972 0-.8464-.148-1.46-.444-1.8408-.254-.3809-.55-.5713-.889-.5713-.465 0-.825.1904-1.079.5713-.212.3385-.402.7405-.571 1.206-.212.5078-.529 1.3965-.952 2.666-.424 1.2272-.91 2.6237-1.46 4.1895-.508 1.5657-1.058 3.2161-1.651 4.9512-.592 1.6927-1.142 3.2584-1.65 4.6972-.635 1.862-1.249 3.3643-1.841 4.5069-.55 1.1002-1.1 1.9677-1.65 2.6025-.508.6348-1.016 1.0579-1.524 1.2695s-1.015.3174-1.523.3174c-.423 0-.868-.0846-1.333-.2539-.466-.1693-.91-.4443-1.333-.8252-.381-.3808-.72-.8887-1.016-1.5234-.254-.6771-.402-1.5023-.444-2.4756-.043-.6771-.064-1.3542-.064-2.0313 0-.7194 0-1.4388 0-2.1582 0-1.5657.021-3.1315.064-4.6972.042-1.5658.084-3.0257.127-4.3799.084-1.3542.148-2.5814.19-3.6817.042-1.1002.064-1.9466.064-2.539 0-.8464-.148-1.46-.445-1.8408-.254-.3809-.55-.5713-.888-.5713-.381 0-.72.1692-1.016.5078-.254.3385-.465.7405-.635 1.206-.211.5079-.529 1.4177-.952 2.7295-.423 1.2696-.91 2.7295-1.46 4.3799-.508 1.6081-1.058 3.3008-1.65 5.0781-.593 1.7351-1.143 3.322-1.651 4.7608-.677 1.9043-1.311 3.4277-1.904 4.5703-.55 1.1426-1.1 2.0312-1.65 2.666-.55.5925-1.079.9945-1.587 1.2061-.466.2116-.952.3173-1.46.3173-.423 0-.868-.0846-1.3332-.2539-.4655-.1692-.9098-.4443-1.333-.8252-.3809-.4231-.7194-.9521-1.0157-1.5869-.2539-.6771-.3808-1.5022-.3808-2.4756-.0423-1.2695-.0635-2.4332-.0635-3.4912 0-1.0579 0-2.1158 0-3.1738 0-1.4811 0-3.0045 0-4.5703.0423-1.6081.1058-3.4912.1904-5.6494.0424-1.9043.1693-3.7028.3809-5.3955.2539-1.6927.529-3.1739.8252-4.4434.2962-1.3118.5713-2.3909.8252-3.2373.2962-.8463.529-1.3753.6982-1.5869.2963-.3385.6133-.6771.9523-1.0156.381-.3809.74-.5713 1.079-.5713s.592.1058.762.3174c.169.1692.359.2539.571.2539.254 0 .571-.1058.952-.3174.381-.2539.846-.5501 1.397-.8887.296-.1693.592-.3385.888-.5078.297-.2116.614-.3174.952-.3174.466 0 .699.5502.699 1.6504 0 .3386-.064 1.0368-.191 2.0947-.084 1.0157-.169 2.0313-.254 3.0469-.127 1.8197-.254 3.6393-.381 5.459-.126 1.7773-.253 3.4277-.38 4.9512-.085 1.5234-.148 2.8353-.191 3.9355-.042 1.1003-.063 1.862-.063 2.2852 0 .6771.042 1.0156.127 1.0156.042 0 .211-.402.507-1.2061.339-.8463.741-1.9254 1.207-3.2373.507-1.3541 1.057-2.8352 1.65-4.4433.635-1.6504 1.291-3.2796 1.968-4.8877.677-1.6504 1.354-3.195 2.031-4.6338.719-1.4811 1.418-2.6872 2.095-3.6182.846-1.1849 1.735-2.0735 2.666-2.666.931-.6348 1.841-.9521 2.729-.9521 1.778 0 2.92 1.1214 3.428 3.3642.508 2.2429.762 5.5648.762 9.9658 0 1.9043-.043 3.8721-.127 5.9034-.085 2.0312-.127 4.0413-.127 6.0302 0 .2539.042.3809.127.3809.042 0 .211-.402.508-1.2061.296-.8463.677-1.9254 1.142-3.2373.508-1.3541 1.079-2.8564 1.714-4.5068s1.291-3.2796 1.968-4.8877c.719-1.6504 1.417-3.195 2.094-4.6338.72-1.4388 1.418-2.6237 2.095-3.5547.847-1.1425 1.735-2.0312 2.666-2.666s1.841-.9521 2.73-.9521c.761 0 1.417.2539 1.967.7617.551.4655.974 1.1426 1.27 2.0312.339.8464.571 1.862.698 3.0469.17 1.1426.254 2.4121.254 3.8086 0 .7617-.042 1.6927-.127 2.793-.042 1.1002-.106 2.264-.19 3.4912-.043 1.2272-.085 2.4967-.127 3.8086-.043 1.2695-.064 2.4332-.064 3.4912 0 1.6504.064 3.0045.191 4.0625.169 1.0579.381 1.8831.635 2.4756.253.5924.55.9944.888 1.206.339.2116.72.3174 1.143.3174.761 0 1.439-.3385 2.031-1.0156.635-.7194 1.248-1.6927 1.841-2.9199.635-1.2272 1.269-2.6661 1.904-4.3164.635-1.6928 1.354-3.5336 2.158-5.5225.381-1.0579.974-1.5869 1.778-1.5869zm34.087 1.9678c-1.27 3.8086-2.455 7.1516-3.555 10.0293-1.1 2.8352-2.201 5.2262-3.301 7.1728-1.1 1.9043-2.285 3.3431-3.555 4.3164-1.227.9733-2.602 1.46-4.126 1.46-1.057 0-1.946-.3386-2.666-1.0157-.677-.677-1.248-1.4388-1.713-2.2851-.466-.8464-.826-1.6504-1.08-2.4121-.211-.8041-.359-1.333-.444-1.5869-.042-.0847-.084-.2116-.127-.3809-.042-.1693-.106-.2539-.19-.2539-.085 0-.17.0635-.254.1904-.042.127-.106.2539-.191.3809-.127.2962-.465.8463-1.015 1.6504-.55.804-1.249 1.6292-2.095 2.4756-.804.8463-1.735 1.608-2.793 2.2851-1.058.6348-2.2.9522-3.428.9522-.973 0-1.925-.3174-2.856-.9522-.889-.6347-1.672-1.4811-2.349-2.539-.677-1.1003-1.206-2.391-1.587-3.8721-.423-1.4811-.634-3.068-.634-4.7608 0-3.6816.592-7.1305 1.777-10.3466 1.143-3.2585 3.026-6.517 5.649-9.7754 1.27-1.5658 2.603-2.9623 3.999-4.1895 1.439-1.2272 2.836-2.2428 4.19-3.0469 1.354-.8463 2.645-1.4811 3.872-1.9042 1.269-.4232 2.349-.6348 3.237-.6348.593 0 1.185.1058 1.778.3174.592.2116 1.121.5713 1.586 1.0791.466.5078.826 1.1849 1.08 2.0312.296.8041.444 1.7985.444 2.9834 0 1.2696-.212 2.6449-.635 4.126-.381 1.4811-.973 2.8776-1.777 4.1895-.762 1.2695-1.714 2.3274-2.857 3.1738-1.142.8463-2.433 1.2695-3.872 1.2695-.888 0-1.333-.3385-1.333-1.0156 0-.4655.106-1.2272.318-2.2852.254-1.0579.381-2.0735.381-3.0468 0-.3809-.022-.8252-.064-1.3331-.042-.5501-.148-1.0791-.317-1.5869-.17-.5078-.402-.931-.699-1.2695-.296-.3385-.698-.5078-1.206-.5078-1.142 0-2.137.529-2.983 1.5869s-1.566 2.3486-2.158 3.8721c-.55 1.5234-.974 3.1103-1.27 4.7607s-.444 3.068-.444 4.2529c0 1.6081.127 2.9623.381 4.0625.254 1.058.592 1.9255 1.015 2.6026.424.6347.91 1.1002 1.46 1.3965.55.2539 1.122.3808 1.714.3808 1.397 0 2.645-.4655 3.745-1.3965 1.101-.9733 2.053-2.0312 2.857-3.1738.804-1.1849 1.46-2.2428 1.968-3.1738.55-.9733.994-1.46 1.333-1.46.38 0 .634.4444.761 1.333.254 1.9043.529 3.4701.825 4.6973.297 1.2272.593 2.2005.889 2.9199.296.6771.593 1.1638.889 1.46.338.2539.677.3808 1.015.3808.635 0 1.27-.3597 1.905-1.0791.635-.7617 1.269-1.7773 1.904-3.0468.635-1.2696 1.291-2.7507 1.968-4.4434s1.396-3.4912 2.158-5.3955c.466-1.0579 1.016-1.5869 1.65-1.5869.635 0 .953.3808.953 1.1426 0 .2962-.043.5712-.127.8252zm14.409-44.1797c.127.2539.19.5289.19.8252 0 .804-.508 1.6504-1.523 2.539-.847.7617-1.629 1.5023-2.349 2.2217-.719.7194-1.375 1.3753-1.968 1.9678-.592.5501-1.121.9944-1.587 1.333-.465.3385-.846.5078-1.142.5078-.212 0-.423-.0423-.635-.127-.169-.0846-.338-.275-.508-.5712-.508-.9733-1.015-1.989-1.523-3.0469-.508-1.058-.973-2.0524-1.397-2.9834-.38-.931-.698-1.735-.952-2.4121-.254-.7194-.381-1.2061-.381-1.46 0-.4655.212-.9733.635-1.5234.169-.2539.55-.7406 1.143-1.46.634-.7194 1.29-1.4811 1.967-2.2851.72-.8041 1.376-1.5446 1.968-2.2217.635-.6771 1.058-1.1214 1.27-1.333.508-.5925.931-.8887 1.269-.8887.381 0 .677.2751.889.8252.127.2962.402.931.825 1.9043.466.9733.952 2.0312 1.46 3.1738.508 1.1003.995 2.1371 1.46 3.1104.466.9733.762 1.608.889 1.9043zm8.442 42.2119c.254 0 .466.1058.635.3174.212.1692.317.4231.317.7617 0 .2962-.063.5924-.19.8887-.973 2.7929-1.883 5.332-2.73 7.6171-.804 2.2852-1.629 4.3165-2.475 6.0938-1.227 2.666-2.412 4.7184-3.555 6.1572-1.1 1.3965-2.349 2.3275-3.745 2.793-.339.0846-.719.1693-1.143.2539-.423.0846-.867.1269-1.333.1269-1.058 0-2.2-.2115-3.427-.6347-1.185-.4232-2.307-1.2272-3.365-2.4121-1.015-1.1849-1.862-2.8353-2.539-4.9512-.677-2.1582-1.015-4.9512-1.015-8.3789 0-3.0469.106-5.9668.317-8.7598.212-2.8353.529-5.6917.952-8.5693.635-1.3119 1.397-2.4968 2.285-3.5547.931-1.1003 1.862-2.0312 2.793-2.793.931-.804 1.778-1.4176 2.539-1.8408.804-.4232 1.397-.6347 1.778-.6347.169 0 .254.1904.254.5712 0 .3386-.064.931-.191 1.7774-.084.804-.19 1.9466-.317 3.4277s-.275 3.3854-.444 5.7129c-.127 2.2852-.233 5.0781-.318 8.3789 0 1.9043.106 3.6605.318 5.2686.253 1.608.592 3.0045 1.015 4.1894.466 1.1849 1.016 2.1159 1.651 2.793.634.6348 1.333.9521 2.094.9521.72 0 1.397-.3385 2.032-1.0156.634-.7194 1.269-1.6927 1.904-2.9199.635-1.2695 1.291-2.7507 1.968-4.4434.677-1.735 1.396-3.597 2.158-5.5859.423-1.0579 1.015-1.5869 1.777-1.5869z" fill="#ebab5e"/></svg>